<?xml version="1.0" standalone="no"?><!DOCTYPE svg PUBLIC "-//W3C//DTD SVG 1.1//EN" "http://www.w3.org/Graphics/SVG/1.1/DTD/svg11.dtd"><svg t="1599806630920" class="icon" viewBox="0 0 1027 1024" version="1.1" xmlns="http://www.w3.org/2000/svg" p-id="4207" xmlns:xlink="http://www.w3.org/1999/xlink" width="32.09375" height="32"><defs><style type="text/css"></style></defs><path d="M5.852254 1.257151h1021.478473v1021.492923H5.852254z" fill="#769AFF" p-id="4208"></path><path d="M5.852254 1.257151l1021.471248 1021.485698M5.852254 1022.742849L1027.323502 1.257151" fill="#769AFF" p-id="4209"></path><path d="M699.026487 385.909208c44.506033 0 80.710534-36.211727 80.710534-80.717759 0-44.498808-36.204502-80.703309-80.710534-80.70331-44.506033 0-80.717759 36.204502-80.717759 80.70331 0 44.513258 36.211727 80.717759 80.717759 80.717759z" fill="#FFFFFF" p-id="4210"></path><path d="M917.517872 40.90798h-821.483102a50.575037 50.575037 0 0 0-50.575037 50.575037v821.490327a50.575037 50.575037 0 0 0 50.575037 50.575037h821.483102a50.575037 50.575037 0 0 0 50.575037-50.575037V91.483017a50.575037 50.575037 0 0 0-50.575037-50.575037z m-50.575037 101.150074v567.574741l-127.738094-209.922529a50.596712 50.596712 0 0 0-40.842955-24.232668 50.596712 50.596712 0 0 0-42.923756 20.316715L571.476244 608.554971 422.67726 364.024667a50.575037 50.575037 0 0 0-83.766712-3.915953L146.609807 618.366528V142.058054h720.333028z" fill="#FFFFFF" p-id="4211"></path></svg>